<svg xmlns="http://www.w3.org/2000/svg" xmlns:xlink="http://www.w3.org/1999/xlink" width="292" zoomAndPan="magnify" viewBox="0 0 218.87999 37.5" height="50" preserveAspectRatio="xMidYMid meet" version="1.0"><defs><g/></defs><g fill="#ffffff" fill-opacity="1"><g transform="translate(14.672014, 36.488635)"><g><path d="M 10.4375 -7.609375 C 10.40625 -6.734375 10.800781 -6.109375 11.625 -5.734375 C 12.457031 -5.359375 13.738281 -5.171875 15.46875 -5.171875 C 16.4375 -5.171875 17.335938 -5.226562 18.171875 -5.34375 C 19.003906 -5.457031 19.726562 -5.644531 20.34375 -5.90625 C 20.957031 -6.164062 21.4375 -6.519531 21.78125 -6.96875 C 22.125 -7.425781 22.296875 -8 22.296875 -8.6875 L 22.296875 -9.609375 C 20.242188 -9.992188 18 -10.1875 15.5625 -10.1875 C 13.832031 -10.1875 12.546875 -9.992188 11.703125 -9.609375 C 10.859375 -9.222656 10.4375 -8.554688 10.4375 -7.609375 Z M 29.703125 -8.6875 C 29.703125 -7.0625 29.375 -5.671875 28.71875 -4.515625 C 28.070312 -3.359375 27.140625 -2.40625 25.921875 -1.65625 C 24.703125 -0.90625 23.222656 -0.359375 21.484375 -0.015625 C 19.742188 0.316406 17.785156 0.484375 15.609375 0.484375 C 11.117188 0.484375 7.878906 -0.171875 5.890625 -1.484375 C 3.910156 -2.804688 2.921875 -4.734375 2.921875 -7.265625 C 2.921875 -8.703125 3.1875 -9.90625 3.71875 -10.875 C 4.257812 -11.851562 5.035156 -12.640625 6.046875 -13.234375 C 7.054688 -13.835938 8.289062 -14.269531 9.75 -14.53125 C 11.21875 -14.789062 12.894531 -14.921875 14.78125 -14.921875 C 16.113281 -14.921875 17.460938 -14.863281 18.828125 -14.75 C 20.191406 -14.632812 21.347656 -14.5 22.296875 -14.34375 L 22.296875 -17.359375 C 22.296875 -18.734375 21.847656 -19.769531 20.953125 -20.46875 C 20.054688 -21.164062 18.648438 -21.515625 16.734375 -21.515625 C 14.679688 -21.515625 13.234375 -21.171875 12.390625 -20.484375 C 11.546875 -19.804688 11.125 -18.992188 11.125 -18.046875 L 11.125 -17.078125 L 3.8125 -17.078125 L 3.8125 -18.53125 C 3.8125 -19.738281 4.078125 -20.894531 4.609375 -22 C 5.148438 -23.101562 5.957031 -24.085938 7.03125 -24.953125 C 8.101562 -25.816406 9.453125 -26.507812 11.078125 -27.03125 C 12.703125 -27.550781 14.585938 -27.8125 16.734375 -27.8125 C 20.960938 -27.8125 24.179688 -26.929688 26.390625 -25.171875 C 28.597656 -23.410156 29.703125 -20.972656 29.703125 -17.859375 Z M 29.703125 -8.6875 "/></g></g></g><g fill="#ffffff" fill-opacity="1"><g transform="translate(48.134631, 36.488635)"><g><path d="M 3.90625 -17.359375 C 3.90625 -20.617188 5.007812 -23.175781 7.21875 -25.03125 C 9.425781 -26.882812 12.53125 -27.8125 16.53125 -27.8125 C 18.382812 -27.8125 20.082031 -27.492188 21.625 -26.859375 C 23.175781 -26.222656 24.441406 -25.351562 25.421875 -24.25 C 26.390625 -25.351562 27.644531 -26.222656 29.1875 -26.859375 C 30.738281 -27.492188 32.457031 -27.8125 34.34375 -27.8125 C 38.3125 -27.8125 41.398438 -26.882812 43.609375 -25.03125 C 45.816406 -23.175781 46.921875 -20.617188 46.921875 -17.359375 L 46.921875 0 L 39.515625 0 L 39.515625 -16.828125 C 39.515625 -19.953125 37.789062 -21.515625 34.34375 -21.515625 C 32.351562 -21.515625 30.984375 -21.125 30.234375 -20.34375 C 29.492188 -19.5625 29.125 -18.390625 29.125 -16.828125 L 29.125 0 L 21.703125 0 L 21.703125 -16.828125 C 21.703125 -19.953125 19.976562 -21.515625 16.53125 -21.515625 C 14.550781 -21.515625 13.1875 -21.125 12.4375 -20.34375 C 11.6875 -19.5625 11.3125 -18.390625 11.3125 -16.828125 L 11.3125 0 L 3.90625 0 Z M 3.90625 -17.359375 "/></g></g></g><g fill="#ffffff" fill-opacity="1"><g transform="translate(98.962682, 36.488635)"><g><path d="M 11.3125 -10.484375 C 11.3125 -7.367188 13.28125 -5.8125 17.21875 -5.8125 C 21.1875 -5.8125 23.171875 -7.367188 23.171875 -10.484375 L 23.171875 -17.46875 C 23.171875 -18.863281 22.785156 -19.84375 22.015625 -20.40625 C 21.253906 -20.976562 19.914062 -21.265625 18 -21.265625 C 16.757812 -21.265625 15.53125 -21.085938 14.3125 -20.734375 C 13.09375 -20.378906 12.09375 -19.921875 11.3125 -19.359375 Z M 3.90625 -36.578125 L 11.3125 -36.578125 L 11.3125 -25.46875 C 12.320312 -26.082031 13.550781 -26.625 15 -27.09375 C 16.445312 -27.570312 17.96875 -27.8125 19.5625 -27.8125 C 23.5 -27.8125 26.316406 -26.976562 28.015625 -25.3125 C 29.722656 -23.65625 30.578125 -21.1875 30.578125 -17.90625 L 30.578125 -9.953125 C 30.578125 -8.328125 30.269531 -6.867188 29.65625 -5.578125 C 29.039062 -4.296875 28.160156 -3.195312 27.015625 -2.28125 C 25.878906 -1.375 24.484375 -0.6875 22.828125 -0.21875 C 21.171875 0.25 19.300781 0.484375 17.21875 0.484375 C 15.132812 0.484375 13.269531 0.25 11.625 -0.21875 C 9.988281 -0.6875 8.59375 -1.375 7.4375 -2.28125 C 6.28125 -3.195312 5.398438 -4.296875 4.796875 -5.578125 C 4.203125 -6.867188 3.90625 -8.328125 3.90625 -9.953125 Z M 3.90625 -36.578125 "/></g></g></g><g fill="#ffffff" fill-opacity="1"><g transform="translate(133.205771, 36.488635)"><g><path d="M 3.5625 -17.3125 C 3.5625 -18.9375 3.867188 -20.398438 4.484375 -21.703125 C 5.109375 -23.003906 6.003906 -24.101562 7.171875 -25 C 8.335938 -25.894531 9.757812 -26.585938 11.4375 -27.078125 C 13.113281 -27.566406 14.992188 -27.8125 17.078125 -27.8125 C 19.160156 -27.8125 21.035156 -27.566406 22.703125 -27.078125 C 24.378906 -26.585938 25.800781 -25.894531 26.96875 -25 C 28.144531 -24.101562 29.039062 -23.003906 29.65625 -21.703125 C 30.269531 -20.398438 30.578125 -18.9375 30.578125 -17.3125 L 30.578125 -11.46875 L 10.96875 -11.46875 L 10.96875 -9.953125 C 10.9375 -8.390625 11.445312 -7.289062 12.5 -6.65625 C 13.5625 -6.019531 15.085938 -5.703125 17.078125 -5.703125 C 19.222656 -5.703125 20.765625 -6.023438 21.703125 -6.671875 C 22.648438 -7.328125 23.125 -8.078125 23.125 -8.921875 L 23.125 -9.359375 L 30.4375 -9.359375 L 30.4375 -8.578125 C 30.4375 -7.410156 30.132812 -6.28125 29.53125 -5.1875 C 28.9375 -4.101562 28.066406 -3.140625 26.921875 -2.296875 C 25.785156 -1.453125 24.390625 -0.773438 22.734375 -0.265625 C 21.078125 0.234375 19.191406 0.484375 17.078125 0.484375 C 14.992188 0.484375 13.113281 0.25 11.4375 -0.21875 C 9.757812 -0.6875 8.335938 -1.375 7.171875 -2.28125 C 6.003906 -3.195312 5.109375 -4.296875 4.484375 -5.578125 C 3.867188 -6.867188 3.5625 -8.328125 3.5625 -9.953125 Z M 23.171875 -16.25 L 23.171875 -17.21875 C 23.171875 -20.144531 21.140625 -21.609375 17.078125 -21.609375 C 15.085938 -21.609375 13.5625 -21.257812 12.5 -20.5625 C 11.445312 -19.863281 10.90625 -18.75 10.875 -17.21875 L 10.875 -16.25 Z M 23.171875 -16.25 "/></g></g></g><g fill="#ffffff" fill-opacity="1"><g transform="translate(167.156177, 36.488635)"><g><path d="M 10.96875 -10.484375 C 10.96875 -8.921875 11.488281 -7.75 12.53125 -6.96875 C 13.570312 -6.195312 15.085938 -5.8125 17.078125 -5.8125 C 19.023438 -5.8125 20.523438 -6.195312 21.578125 -6.96875 C 22.640625 -7.75 23.171875 -8.921875 23.171875 -10.484375 L 23.171875 -16.828125 C 23.171875 -18.390625 22.640625 -19.5625 21.578125 -20.34375 C 20.523438 -21.125 19.023438 -21.515625 17.078125 -21.515625 C 15.085938 -21.515625 13.570312 -21.125 12.53125 -20.34375 C 11.488281 -19.5625 10.96875 -18.390625 10.96875 -16.828125 Z M 3.5625 -17.359375 C 3.5625 -18.992188 3.867188 -20.453125 4.484375 -21.734375 C 5.109375 -23.015625 6.003906 -24.109375 7.171875 -25.015625 C 8.335938 -25.929688 9.757812 -26.625 11.4375 -27.09375 C 13.113281 -27.570312 14.992188 -27.8125 17.078125 -27.8125 C 19.160156 -27.8125 21.035156 -27.570312 22.703125 -27.09375 C 24.378906 -26.625 25.800781 -25.929688 26.96875 -25.015625 C 28.144531 -24.109375 29.039062 -23.015625 29.65625 -21.734375 C 30.269531 -20.453125 30.578125 -18.992188 30.578125 -17.359375 L 30.578125 -9.953125 C 30.578125 -8.328125 30.269531 -6.867188 29.65625 -5.578125 C 29.039062 -4.296875 28.144531 -3.195312 26.96875 -2.28125 C 25.800781 -1.375 24.378906 -0.6875 22.703125 -0.21875 C 21.035156 0.25 19.160156 0.484375 17.078125 0.484375 C 14.992188 0.484375 13.113281 0.25 11.4375 -0.21875 C 9.757812 -0.6875 8.335938 -1.375 7.171875 -2.28125 C 6.003906 -3.195312 5.109375 -4.296875 4.484375 -5.578125 C 3.867188 -6.867188 3.5625 -8.328125 3.5625 -9.953125 Z M 3.5625 -17.359375 "/></g></g></g></svg>