<svg xmlns="http://www.w3.org/2000/svg" xmlns:xlink="http://www.w3.org/1999/xlink" width="40" zoomAndPan="magnify" viewBox="0 0 30 30.000001" height="40" preserveAspectRatio="xMidYMid meet" version="1.0"><defs><g/><clipPath id="8ff07807eb"><path d="M 0.484375 0 L 29.515625 0 L 29.515625 29.03125 L 0.484375 29.03125 Z M 0.484375 0 " clip-rule="nonzero"/></clipPath><clipPath id="e722c6ec2c"><path d="M 8.46875 0 L 21.53125 0 C 25.941406 0 29.515625 3.574219 29.515625 7.984375 L 29.515625 21.046875 C 29.515625 25.457031 25.941406 29.03125 21.53125 29.03125 L 8.46875 29.03125 C 4.058594 29.03125 0.484375 25.457031 0.484375 21.046875 L 0.484375 7.984375 C 0.484375 3.574219 4.058594 0 8.46875 0 Z M 8.46875 0 " clip-rule="nonzero"/></clipPath></defs><g clip-path="url(#8ff07807eb)"><g clip-path="url(#e722c6ec2c)"><path fill="#ffffff" d="M 0.484375 0 L 29.515625 0 L 29.515625 29.03125 L 0.484375 29.03125 Z M 0.484375 0 " fill-opacity="1" fill-rule="nonzero"/></g></g><g fill="#e11d48" fill-opacity="1"><g transform="translate(6.489366, 22.849227)"><g><path d="M 5.625 -5.203125 C 5.625 -3.660156 6.601562 -2.890625 8.5625 -2.890625 C 10.53125 -2.890625 11.515625 -3.660156 11.515625 -5.203125 L 11.515625 -8.671875 C 11.515625 -9.367188 11.320312 -9.859375 10.9375 -10.140625 C 10.5625 -10.421875 9.894531 -10.5625 8.9375 -10.5625 C 8.320312 -10.5625 7.710938 -10.472656 7.109375 -10.296875 C 6.503906 -10.117188 6.007812 -9.894531 5.625 -9.625 Z M 1.9375 -18.171875 L 5.625 -18.171875 L 5.625 -12.65625 C 6.125 -12.957031 6.734375 -13.222656 7.453125 -13.453125 C 8.171875 -13.691406 8.925781 -13.8125 9.71875 -13.8125 C 11.675781 -13.8125 13.078125 -13.398438 13.921875 -12.578125 C 14.765625 -11.753906 15.1875 -10.523438 15.1875 -8.890625 L 15.1875 -4.9375 C 15.1875 -4.132812 15.035156 -3.410156 14.734375 -2.765625 C 14.429688 -2.128906 13.992188 -1.582031 13.421875 -1.125 C 12.859375 -0.675781 12.164062 -0.332031 11.34375 -0.09375 C 10.519531 0.132812 9.59375 0.25 8.5625 0.25 C 7.519531 0.25 6.59375 0.132812 5.78125 -0.09375 C 4.96875 -0.332031 4.269531 -0.675781 3.6875 -1.125 C 3.113281 -1.582031 2.675781 -2.128906 2.375 -2.765625 C 2.082031 -3.410156 1.9375 -4.132812 1.9375 -4.9375 Z M 1.9375 -18.171875 "/></g></g></g></svg>