<svg xmlns="http://www.w3.org/2000/svg" xmlns:xlink="http://www.w3.org/1999/xlink" width="280" zoomAndPan="magnify" viewBox="0 0 210 37.5" height="50" preserveAspectRatio="xMidYMid meet" version="1.0"><defs><g/><clipPath id="f1531bad8d"><path d="M 182 8 L 208.617188 8 L 208.617188 36 L 182 36 Z M 182 8 " clip-rule="nonzero"/></clipPath></defs><g fill="#f43f5e" fill-opacity="1"><g transform="translate(-1.456265, 35.11463)"><g><path d="M 10.90625 -10.109375 C 10.90625 -7.097656 12.804688 -5.59375 16.609375 -5.59375 C 20.429688 -5.59375 22.34375 -7.097656 22.34375 -10.109375 L 22.34375 -16.84375 C 22.34375 -18.1875 21.972656 -19.128906 21.234375 -19.671875 C 20.492188 -20.222656 19.203125 -20.5 17.359375 -20.5 C 16.160156 -20.5 14.972656 -20.328125 13.796875 -19.984375 C 12.628906 -19.640625 11.664062 -19.203125 10.90625 -18.671875 Z M 3.765625 -35.265625 L 10.90625 -35.265625 L 10.90625 -24.546875 C 11.882812 -25.140625 13.070312 -25.664062 14.46875 -26.125 C 15.863281 -26.582031 17.328125 -26.8125 18.859375 -26.8125 C 22.648438 -26.8125 25.367188 -26.007812 27.015625 -24.40625 C 28.660156 -22.8125 29.484375 -20.429688 29.484375 -17.265625 L 29.484375 -9.59375 C 29.484375 -8.03125 29.1875 -6.628906 28.59375 -5.390625 C 28 -4.148438 27.148438 -3.085938 26.046875 -2.203125 C 24.953125 -1.328125 23.601562 -0.660156 22 -0.203125 C 20.40625 0.242188 18.609375 0.46875 16.609375 0.46875 C 14.597656 0.46875 12.800781 0.242188 11.21875 -0.203125 C 9.632812 -0.660156 8.285156 -1.328125 7.171875 -2.203125 C 6.054688 -3.085938 5.207031 -4.148438 4.625 -5.390625 C 4.050781 -6.628906 3.765625 -8.03125 3.765625 -9.59375 Z M 3.765625 -35.265625 "/></g></g></g><g fill="#334155" fill-opacity="1"><g transform="translate(31.560541, 35.11463)"><g><path d="M 10.0625 -7.34375 C 10.03125 -6.488281 10.414062 -5.878906 11.21875 -5.515625 C 12.019531 -5.160156 13.25 -4.984375 14.90625 -4.984375 C 15.84375 -4.984375 16.710938 -5.035156 17.515625 -5.140625 C 18.316406 -5.253906 19.015625 -5.4375 19.609375 -5.6875 C 20.203125 -5.9375 20.664062 -6.28125 21 -6.71875 C 21.332031 -7.164062 21.5 -7.71875 21.5 -8.375 L 21.5 -9.265625 C 19.519531 -9.640625 17.351562 -9.828125 15 -9.828125 C 13.34375 -9.828125 12.101562 -9.640625 11.28125 -9.265625 C 10.46875 -8.890625 10.0625 -8.25 10.0625 -7.34375 Z M 28.640625 -8.375 C 28.640625 -6.800781 28.328125 -5.457031 27.703125 -4.34375 C 27.078125 -3.238281 26.175781 -2.320312 25 -1.59375 C 23.820312 -0.875 22.394531 -0.347656 20.71875 -0.015625 C 19.039062 0.304688 17.148438 0.46875 15.046875 0.46875 C 10.722656 0.46875 7.601562 -0.164062 5.6875 -1.4375 C 3.78125 -2.707031 2.828125 -4.5625 2.828125 -7 C 2.828125 -8.382812 3.082031 -9.546875 3.59375 -10.484375 C 4.113281 -11.429688 4.859375 -12.191406 5.828125 -12.765625 C 6.804688 -13.347656 8 -13.765625 9.40625 -14.015625 C 10.8125 -14.265625 12.425781 -14.390625 14.25 -14.390625 C 15.53125 -14.390625 16.828125 -14.332031 18.140625 -14.21875 C 19.460938 -14.113281 20.582031 -13.984375 21.5 -13.828125 L 21.5 -16.75 C 21.5 -18.0625 21.066406 -19.050781 20.203125 -19.71875 C 19.335938 -20.394531 17.976562 -20.734375 16.125 -20.734375 C 14.15625 -20.734375 12.757812 -20.40625 11.9375 -19.75 C 11.125 -19.09375 10.71875 -18.3125 10.71875 -17.40625 L 10.71875 -16.453125 L 3.671875 -16.453125 L 3.671875 -17.875 C 3.671875 -19.03125 3.925781 -20.140625 4.4375 -21.203125 C 4.957031 -22.273438 5.734375 -23.222656 6.765625 -24.046875 C 7.804688 -24.878906 9.109375 -25.546875 10.671875 -26.046875 C 12.242188 -26.554688 14.0625 -26.8125 16.125 -26.8125 C 20.207031 -26.8125 23.3125 -25.960938 25.4375 -24.265625 C 27.570312 -22.578125 28.640625 -20.226562 28.640625 -17.21875 Z M 28.640625 -8.375 "/></g></g></g><g fill="#334155" fill-opacity="1"><g transform="translate(63.817237, 35.11463)"><g><path d="M 3.765625 -16.75 C 3.765625 -19.882812 4.828125 -22.34375 6.953125 -24.125 C 9.085938 -25.914062 12.082031 -26.8125 15.9375 -26.8125 C 17.726562 -26.8125 19.367188 -26.503906 20.859375 -25.890625 C 22.347656 -25.273438 23.5625 -24.4375 24.5 -23.375 C 25.445312 -24.4375 26.660156 -25.273438 28.140625 -25.890625 C 29.628906 -26.503906 31.285156 -26.8125 33.109375 -26.8125 C 36.929688 -26.8125 39.910156 -25.914062 42.046875 -24.125 C 44.179688 -22.34375 45.25 -19.882812 45.25 -16.75 L 45.25 0 L 38.09375 0 L 38.09375 -16.21875 C 38.09375 -19.226562 36.429688 -20.734375 33.109375 -20.734375 C 31.191406 -20.734375 29.875 -20.359375 29.15625 -19.609375 C 28.4375 -18.859375 28.078125 -17.726562 28.078125 -16.21875 L 28.078125 0 L 20.921875 0 L 20.921875 -16.21875 C 20.921875 -19.226562 19.257812 -20.734375 15.9375 -20.734375 C 14.03125 -20.734375 12.710938 -20.359375 11.984375 -19.609375 C 11.265625 -18.859375 10.90625 -17.726562 10.90625 -16.21875 L 10.90625 0 L 3.765625 0 Z M 3.765625 -16.75 "/></g></g></g><g fill="#fbbf24" fill-opacity="1"><g transform="translate(112.824672, 35.11463)"><g><path d="M 10.90625 -10.109375 C 10.90625 -7.097656 12.804688 -5.59375 16.609375 -5.59375 C 20.429688 -5.59375 22.34375 -7.097656 22.34375 -10.109375 L 22.34375 -16.84375 C 22.34375 -18.1875 21.972656 -19.128906 21.234375 -19.671875 C 20.492188 -20.222656 19.203125 -20.5 17.359375 -20.5 C 16.160156 -20.5 14.972656 -20.328125 13.796875 -19.984375 C 12.628906 -19.640625 11.664062 -19.203125 10.90625 -18.671875 Z M 3.765625 -35.265625 L 10.90625 -35.265625 L 10.90625 -24.546875 C 11.882812 -25.140625 13.070312 -25.664062 14.46875 -26.125 C 15.863281 -26.582031 17.328125 -26.8125 18.859375 -26.8125 C 22.648438 -26.8125 25.367188 -26.007812 27.015625 -24.40625 C 28.660156 -22.8125 29.484375 -20.429688 29.484375 -17.265625 L 29.484375 -9.59375 C 29.484375 -8.03125 29.1875 -6.628906 28.59375 -5.390625 C 28 -4.148438 27.148438 -3.085938 26.046875 -2.203125 C 24.953125 -1.328125 23.601562 -0.660156 22 -0.203125 C 20.40625 0.242188 18.609375 0.46875 16.609375 0.46875 C 14.597656 0.46875 12.800781 0.242188 11.21875 -0.203125 C 9.632812 -0.660156 8.285156 -1.328125 7.171875 -2.203125 C 6.054688 -3.085938 5.207031 -4.148438 4.625 -5.390625 C 4.050781 -6.628906 3.765625 -8.03125 3.765625 -9.59375 Z M 3.765625 -35.265625 "/></g></g></g><g fill="#334155" fill-opacity="1"><g transform="translate(145.841478, 35.11463)"><g><path d="M 3.4375 -16.703125 C 3.4375 -18.265625 3.734375 -19.671875 4.328125 -20.921875 C 4.921875 -22.179688 5.78125 -23.238281 6.90625 -24.09375 C 8.039062 -24.957031 9.414062 -25.625 11.03125 -26.09375 C 12.644531 -26.570312 14.453125 -26.8125 16.453125 -26.8125 C 18.460938 -26.8125 20.273438 -26.570312 21.890625 -26.09375 C 23.503906 -25.625 24.875 -24.957031 26 -24.09375 C 27.132812 -23.238281 28 -22.179688 28.59375 -20.921875 C 29.1875 -19.671875 29.484375 -18.265625 29.484375 -16.703125 L 29.484375 -11.046875 L 10.578125 -11.046875 L 10.578125 -9.59375 C 10.546875 -8.09375 11.039062 -7.035156 12.0625 -6.421875 C 13.082031 -5.804688 14.546875 -5.5 16.453125 -5.5 C 18.523438 -5.5 20.015625 -5.8125 20.921875 -6.4375 C 21.835938 -7.070312 22.296875 -7.796875 22.296875 -8.609375 L 22.296875 -9.03125 L 29.34375 -9.03125 L 29.34375 -8.28125 C 29.34375 -7.144531 29.050781 -6.050781 28.46875 -5 C 27.894531 -3.957031 27.054688 -3.023438 25.953125 -2.203125 C 24.859375 -1.390625 23.507812 -0.738281 21.90625 -0.25 C 20.3125 0.226562 18.492188 0.46875 16.453125 0.46875 C 14.453125 0.46875 12.644531 0.242188 11.03125 -0.203125 C 9.414062 -0.660156 8.039062 -1.328125 6.90625 -2.203125 C 5.78125 -3.085938 4.921875 -4.148438 4.328125 -5.390625 C 3.734375 -6.628906 3.4375 -8.03125 3.4375 -9.59375 Z M 22.34375 -15.65625 L 22.34375 -16.609375 C 22.34375 -19.421875 20.378906 -20.828125 16.453125 -20.828125 C 14.546875 -20.828125 13.082031 -20.488281 12.0625 -19.8125 C 11.039062 -19.144531 10.515625 -18.078125 10.484375 -16.609375 L 10.484375 -15.65625 Z M 22.34375 -15.65625 "/></g></g></g><g clip-path="url(#f1531bad8d)"><g fill="#334155" fill-opacity="1"><g transform="translate(178.568379, 35.11463)"><g><path d="M 10.578125 -10.109375 C 10.578125 -8.609375 11.078125 -7.476562 12.078125 -6.71875 C 13.085938 -5.96875 14.546875 -5.59375 16.453125 -5.59375 C 18.335938 -5.59375 19.789062 -5.96875 20.8125 -6.71875 C 21.832031 -7.476562 22.34375 -8.609375 22.34375 -10.109375 L 22.34375 -16.21875 C 22.34375 -17.726562 21.832031 -18.859375 20.8125 -19.609375 C 19.789062 -20.359375 18.335938 -20.734375 16.453125 -20.734375 C 14.546875 -20.734375 13.085938 -20.359375 12.078125 -19.609375 C 11.078125 -18.859375 10.578125 -17.726562 10.578125 -16.21875 Z M 3.4375 -16.75 C 3.4375 -18.3125 3.734375 -19.710938 4.328125 -20.953125 C 4.921875 -22.191406 5.78125 -23.25 6.90625 -24.125 C 8.039062 -25 9.414062 -25.664062 11.03125 -26.125 C 12.644531 -26.582031 14.453125 -26.8125 16.453125 -26.8125 C 18.460938 -26.8125 20.273438 -26.582031 21.890625 -26.125 C 23.503906 -25.664062 24.875 -25 26 -24.125 C 27.132812 -23.25 28 -22.191406 28.59375 -20.953125 C 29.1875 -19.710938 29.484375 -18.3125 29.484375 -16.75 L 29.484375 -9.59375 C 29.484375 -8.03125 29.1875 -6.628906 28.59375 -5.390625 C 28 -4.148438 27.132812 -3.085938 26 -2.203125 C 24.875 -1.328125 23.503906 -0.660156 21.890625 -0.203125 C 20.273438 0.242188 18.460938 0.46875 16.453125 0.46875 C 14.453125 0.46875 12.644531 0.242188 11.03125 -0.203125 C 9.414062 -0.660156 8.039062 -1.328125 6.90625 -2.203125 C 5.78125 -3.085938 4.921875 -4.148438 4.328125 -5.390625 C 3.734375 -6.628906 3.4375 -8.03125 3.4375 -9.59375 Z M 3.4375 -16.75 "/></g></g></g></g></svg>